# xmcd CD database file
#
# Track frame offsets:
#	150
#	11150
#	17975
#	28490
#	39467
#	49415
#	61390
#	73305
#	84782
#	98162
#	106612
#	113387
#
# Disc length: 1660 seconds
#
# Revision: 1
# Processed by: cddbd v1.4PL0 Copyright (c) Steve Scherf et al.
# Submitted via: CDex 1.40Beta9
#
DISCID=99067a0c
DTITLE=The Nitty Gritty Dirt Band - The Nitty Gritty Dirt Band
DYEAR=2002
DGENRE=Country
TTITLE0=Buy for me the rain
TTITLE1=Euphoria
TTITLE2=Melissa
TTITLE3=You took the happiness (out of my head)
TTITLE4=Hard hearted Hannah
TTITLE5=Holding
TTITLE6=Song to Jutta
TTITLE7=Candy man
TTITLE8=Dismal swamp
TTITLE9=I wish I could swimmy like my sister Kate
TTITLE10=Crazy words, crazy tune
TTITLE11=You're gonna get it in the end
EXTD=YEAR: 2002 ID3G: 2
EXTT0=
EXTT1=
EXTT2=
EXTT3=
EXTT4=
EXTT5=
EXTT6=
EXTT7=
EXTT8=
EXTT9=
EXTT10=
EXTT11=
PLAYORDER=
